<?xml version="1.0" encoding="UTF-8"?><svg xmlns="http://www.w3.org/2000/svg" xmlns:xlink="http://www.w3.org/1999/xlink" contentScriptType="text/ecmascript" width="768pt" zoomAndPan="magnify" contentStyleType="text/css" viewBox="0 0 768 767.999994" height="767.999994pt" preserveAspectRatio="xMidYMid meet" version="1.2"><defs><clipPath xml:id="clip1" id="clip1"><path d="M 307.535156 315 L 460.535156 315 L 460.535156 453 L 307.535156 453 Z M 307.535156 315 "/></clipPath><clipPath xml:id="clip2" id="clip2"><path d="M 310.742188 318 L 456.992188 318 L 456.992188 450 L 310.742188 450 Z M 310.742188 318 "/></clipPath></defs><g xml:id="surface1" id="surface1"><g clip-rule="nonzero" clip-path="url(#clip1)"><path style=" stroke:none;fill-rule:nonzero;fill:rgb(65.098572%,65.098572%,65.098572%);fill-opacity:1;" d="M 351.25 315.183594 C 329.09375 315.183594 310.867188 331.855469 308.132812 353.21875 C 307.75 354.96875 307.535156 356.800781 307.535156 358.847656 C 307.535156 383.792969 326.617188 406.308594 344.847656 423.023438 C 363.035156 439.78125 381.21875 450.828125 381.21875 450.828125 L 384.035156 452.574219 L 386.855469 450.828125 C 386.855469 450.828125 405.039062 439.78125 423.269531 423.023438 C 441.453125 406.308594 460.535156 383.792969 460.535156 358.847656 C 460.535156 356.800781 460.324219 355.007812 459.980469 353.304688 C 457.207031 331.855469 439.019531 315.183594 416.824219 315.183594 C 403.246094 315.183594 392.019531 322.261719 384.035156 331.984375 C 376.054688 322.261719 364.828125 315.183594 351.25 315.183594 Z M 351.25 326.097656 C 363.289062 326.097656 373.621094 332.578125 379.339844 342.21875 L 384.035156 350.148438 L 388.734375 342.21875 C 394.453125 332.578125 404.785156 326.097656 416.824219 326.097656 C 433.597656 326.097656 447.175781 338.59375 449.179688 354.839844 L 449.265625 355.265625 C 449.480469 356.289062 449.609375 357.441406 449.609375 358.847656 C 449.609375 377.953125 433.171875 399.101562 415.839844 415.007812 C 399.960938 429.632812 386.554688 437.777344 384.035156 439.355469 C 381.519531 437.777344 368.113281 429.632812 352.191406 415.007812 C 334.902344 399.101562 318.464844 377.953125 318.464844 358.847656 C 318.464844 357.398438 318.59375 356.246094 318.808594 355.265625 L 318.890625 355.007812 L 318.890625 354.753906 C 320.941406 338.59375 334.472656 326.097656 351.25 326.097656 Z M 351.25 326.097656 "/></g><g clip-rule="nonzero" clip-path="url(#clip2)"><path style=" stroke:none;fill-rule:nonzero;fill:rgb(85.099792%,85.099792%,85.099792%);fill-opacity:1;" d="M 352.527344 318.070312 C 331.351562 318.070312 313.925781 334.035156 311.316406 354.496094 C 310.949219 356.167969 310.742188 357.925781 310.742188 359.886719 C 310.742188 383.773438 328.984375 405.335938 346.40625 421.34375 C 363.792969 437.390625 381.175781 447.96875 381.175781 447.96875 L 383.867188 449.644531 L 386.5625 447.96875 C 386.5625 447.96875 403.945312 437.390625 421.371094 421.34375 C 438.753906 405.335938 456.992188 383.773438 456.992188 359.886719 C 456.992188 357.925781 456.789062 356.210938 456.464844 354.578125 C 453.808594 334.035156 436.425781 318.070312 415.207031 318.070312 C 402.230469 318.070312 391.5 324.847656 383.867188 334.160156 C 376.238281 324.847656 365.503906 318.070312 352.527344 318.070312 Z M 352.527344 328.523438 C 364.035156 328.523438 373.910156 334.730469 379.378906 343.960938 L 383.867188 351.554688 L 388.355469 343.960938 C 393.824219 334.730469 403.699219 328.523438 415.207031 328.523438 C 431.246094 328.523438 444.222656 340.488281 446.140625 356.046875 L 446.21875 356.453125 C 446.425781 357.433594 446.546875 358.539062 446.546875 359.886719 C 446.546875 378.179688 430.835938 398.433594 414.269531 413.667969 C 399.089844 427.671875 386.277344 435.472656 383.867188 436.984375 C 381.460938 435.472656 368.648438 427.671875 353.425781 413.667969 C 336.898438 398.433594 321.191406 378.179688 321.191406 359.886719 C 321.191406 358.496094 321.3125 357.394531 321.515625 356.453125 L 321.597656 356.210938 L 321.597656 355.964844 C 323.554688 340.488281 336.492188 328.523438 352.527344 328.523438 Z M 352.527344 328.523438 "/></g></g></svg>