<?xml version="1.0" encoding="UTF-8"?><svg xmlns="http://www.w3.org/2000/svg" xmlns:xlink="http://www.w3.org/1999/xlink" contentScriptType="text/ecmascript" width="768pt" zoomAndPan="magnify" contentStyleType="text/css" viewBox="0 0 768 767.999994" height="767.999994pt" preserveAspectRatio="xMidYMid meet" version="1.2"><defs><clipPath xml:id="clip1" id="clip1"><path d="M 310.742188 318 L 456.992188 318 L 456.992188 450 L 310.742188 450 Z M 310.742188 318 "/></clipPath><clipPath xml:id="clip2" id="clip2"><path d="M 313 321 L 454 321 L 454 447.859375 L 313 447.859375 Z M 313 321 "/></clipPath></defs><g xml:id="surface1" id="surface1"><g clip-rule="nonzero" clip-path="url(#clip1)"><path style=" stroke:none;fill-rule:nonzero;fill:rgb(92.939758%,10.978699%,14.118958%);fill-opacity:1;" d="M 352.527344 318.070312 C 331.351562 318.070312 313.925781 334.035156 311.316406 354.496094 C 310.949219 356.167969 310.742188 357.925781 310.742188 359.886719 C 310.742188 383.773438 328.984375 405.335938 346.40625 421.34375 C 363.792969 437.390625 381.175781 447.96875 381.175781 447.96875 L 383.867188 449.644531 L 386.5625 447.96875 C 386.5625 447.96875 403.945312 437.390625 421.371094 421.34375 C 438.753906 405.335938 456.992188 383.773438 456.992188 359.886719 C 456.992188 357.925781 456.789062 356.210938 456.464844 354.578125 C 453.808594 334.035156 436.425781 318.070312 415.207031 318.070312 C 402.230469 318.070312 391.5 324.847656 383.867188 334.160156 C 376.238281 324.847656 365.503906 318.070312 352.527344 318.070312 Z M 352.527344 328.523438 C 364.035156 328.523438 373.910156 334.730469 379.378906 343.960938 L 383.867188 351.554688 L 388.355469 343.960938 C 393.824219 334.730469 403.699219 328.523438 415.207031 328.523438 C 431.246094 328.523438 444.222656 340.488281 446.140625 356.046875 L 446.21875 356.453125 C 446.425781 357.433594 446.546875 358.539062 446.546875 359.886719 C 446.546875 378.179688 430.835938 398.433594 414.269531 413.667969 C 399.089844 427.671875 386.277344 435.472656 383.867188 436.984375 C 381.460938 435.472656 368.648438 427.671875 353.425781 413.667969 C 336.898438 398.433594 321.191406 378.179688 321.191406 359.886719 C 321.191406 358.496094 321.3125 357.394531 321.515625 356.453125 L 321.597656 356.210938 L 321.597656 355.964844 C 323.554688 340.488281 336.492188 328.523438 352.527344 328.523438 Z M 352.527344 328.523438 "/></g><g clip-rule="nonzero" clip-path="url(#clip2)"><path style=" stroke:none;fill-rule:nonzero;fill:rgb(92.939758%,10.978699%,14.118958%);fill-opacity:1;" d="M 419.140625 321.980469 C 397.242188 320.378906 383.742188 339.347656 383.742188 339.347656 C 383.742188 339.347656 370.238281 320.378906 348.339844 321.980469 C 326.441406 323.582031 310.734375 339.042969 313.929688 365.988281 C 318.613281 405.503906 379.601562 448.007812 383.742188 448.007812 C 387.878906 448.007812 448.867188 405.503906 453.550781 365.988281 C 456.746094 339.042969 441.039062 323.582031 419.140625 321.980469 "/></g></g></svg>